<mxfile host="app.diagrams.net" modified="2024-04-14T15:13:46.731Z" agent="Mozilla/5.0 (Macintosh; Intel Mac OS X 10_15_7) AppleWebKit/537.36 (KHTML, like Gecko) Chrome/123.0.0.0 Safari/537.36" etag="_fjtDx-yJ2rVXEsjGv_T" version="24.2.5" type="github">
  <diagram name="第 1 页" id="5Kt-7vb-0NDNXQXbir0e">
    <mxGraphModel dx="2021" dy="637" grid="1" gridSize="10" guides="1" tooltips="1" connect="1" arrows="1" fold="1" page="1" pageScale="1" pageWidth="827" pageHeight="1169" math="0" shadow="0">
      <root>
        <mxCell id="0" />
        <mxCell id="1" parent="0" />
        <mxCell id="R-kth5_Y_8h0JSRKKStW-1" value="" style="rounded=0;whiteSpace=wrap;html=1;" parent="1" vertex="1">
          <mxGeometry x="-390" y="140" width="160" height="170" as="geometry" />
        </mxCell>
        <mxCell id="R-kth5_Y_8h0JSRKKStW-2" value="" style="rounded=0;whiteSpace=wrap;html=1;" parent="1" vertex="1">
          <mxGeometry x="-48" y="400" width="440" height="260" as="geometry" />
        </mxCell>
      </root>
    </mxGraphModel>
  </diagram>
</mxfile>
